<svg width="28" height="21" viewBox="0 0 28 21" fill="none" xmlns="http://www.w3.org/2000/svg">
<path d="M15.9496 19.5934L14.5748 20.661C13.9927 21.113 13.0514 21.113 12.4755 20.661L0.436595 11.3175C-0.145532 10.8655 -0.145532 10.1345 0.436595 9.68731L12.4755 0.33902C13.0576 -0.113007 13.9989 -0.113007 14.5748 0.33902L15.9496 1.40657C16.538 1.86341 16.5256 2.60877 15.9249 3.05599L8.46251 8.57648H26.2607C27.0844 8.57648 27.747 9.09102 27.747 9.73059V11.2694C27.747 11.909 27.0844 12.4235 26.2607 12.4235H8.46251L15.9249 17.944C16.5318 18.3912 16.5442 19.1366 15.9496 19.5934Z" fill="black"/>
</svg>
